<svg xmlns="http://www.w3.org/2000/svg" xmlns:xlink="http://www.w3.org/1999/xlink" version="1.1" x="0px" y="0px" viewBox="0 0 100 125" enable-background="new 0 0 100 100" xml:space="preserve"><path d="M50,5C25.187,5,5,25.187,5,50s20.187,45,45,45s45-20.187,45-45S74.813,5,50,5z M8.369,50  C8.369,27.045,27.045,8.369,50,8.369c5.107,0,10.002,0.93,14.527,2.62L27.99,56.077h18.787L35.355,88.964  C19.605,83.024,8.369,67.803,8.369,50z M50,91.631c-5.107,0-10.002-0.93-14.527-2.62l36.536-45.088H53.223l11.422-32.887  C80.395,16.976,91.631,32.197,91.631,50C91.631,72.955,72.955,91.631,50,91.631z"/><text x="0" y="115" fill="#000000" font-size="5px" font-weight="bold" font-family="'Helvetica Neue', Helvetica, Arial-Unicode, Arial, Sans-serif">Created by To Uyen</text><text x="0" y="120" fill="#000000" font-size="5px" font-weight="bold" font-family="'Helvetica Neue', Helvetica, Arial-Unicode, Arial, Sans-serif">from the Noun Project</text></svg>